<?xml version="1.0" encoding="utf-8"?>
<!-- Generator: Adobe Illustrator 23.1.1, SVG Export Plug-In . SVG Version: 6.00 Build 0)  -->
<svg version="1.1" id="Layer_1" xmlns="http://www.w3.org/2000/svg" xmlns:xlink="http://www.w3.org/1999/xlink" x="0px" y="0px"
	 viewBox="0 0 636 231" style="enable-background:new 0 0 636 231;" xml:space="preserve">
<style type="text/css">
	.st0{fill:url(#SVGID_1_);}
	.st1{fill:#FFFFFF;}
	.st2{fill:url(#SVGID_2_);}
	.st3{clip-path:url(#SVGID_4_);}
	.st4{fill:#F93F60;}
	.st5{fill:#D80017;}
	.st6{fill:#01EB62;}
	.st7{fill:#00B84F;}
	.st8{clip-path:url(#SVGID_6_);}
	.st9{clip-path:url(#SVGID_8_);}
	.st10{clip-path:url(#SVGID_10_);}
	.st11{clip-path:url(#SVGID_12_);}
	.st12{clip-path:url(#SVGID_14_);}
	.st13{fill:#F5F5F5;}
	.st14{display:none;}
	.st15{display:inline;}
	.st16{fill:#00873B;}
	.st17{fill:#333333;}
	.st18{fill:#D70017;}
	.st19{fill:url(#SVGID_15_);}
	.st20{fill:url(#SVGID_16_);}
</style>
<linearGradient id="SVGID_1_" gradientUnits="userSpaceOnUse" x1="71.9939" y1="269.6691" x2="77.4422" y2="62.633">
	<stop  offset="0.1815" style="stop-color:#680000"/>
	<stop  offset="0.2152" style="stop-color:#780003"/>
	<stop  offset="0.2908" style="stop-color:#950009"/>
	<stop  offset="0.3749" style="stop-color:#AE000E"/>
	<stop  offset="0.4692" style="stop-color:#C10012"/>
	<stop  offset="0.5795" style="stop-color:#CE0015"/>
	<stop  offset="0.7208" style="stop-color:#D60017"/>
	<stop  offset="1" style="stop-color:#D80017"/>
</linearGradient>
<path class="st0" d="M138.66,218.88H13.34c-4.05,0-7.34-3.28-7.34-7.34V23.34C6,19.28,9.28,16,13.34,16h125.33
	c4.05,0,7.34,3.28,7.34,7.34v188.2C146,215.59,142.72,218.88,138.66,218.88z"/>
<g>
	<path d="M241.49,83.68c7.67,8.91,11.51,20.8,11.51,35.67c0,10.39-2.07,19.56-6.2,27.53c-4.13,7.97-9.8,14.16-17,18.59
		c-7.2,4.43-15.34,6.64-24.43,6.64c-15.23,0-26.73-4.69-34.52-14.07c-7.79-9.38-11.68-21.63-11.68-36.73
		c0-10.38,2.18-19.41,6.55-27.09c4.36-7.67,10.24-13.57,17.61-17.7c7.37-4.13,15.61-6.2,24.7-6.2
		C222.66,70.31,233.82,74.77,241.49,83.68z M182.36,118.82c0,11.57,2.01,21.48,6.02,29.74c4.01,8.26,9.97,12.45,17.88,12.57
		c8.61,0.12,14.72-3.3,18.32-10.27c3.6-6.96,5.4-16.93,5.4-29.92c0-11.92-1.92-21.57-5.75-28.95c-3.84-7.37-9.83-11.06-17.97-11.06
		C190.33,80.93,182.36,93.56,182.36,118.82z"/>
	<path d="M256.18,42.16v-9.21l30.98-3.54l4.07,1.42v48.68c3.66-2.71,7.58-4.93,11.77-6.64c4.19-1.71,9-2.57,14.43-2.57
		c7.55,0,14.31,1.74,20.27,5.22c5.96,3.48,10.65,8.76,14.07,15.84c3.42,7.08,5.13,15.87,5.13,26.38c0,9.91-2.19,19.06-6.55,27.44
		c-4.37,8.38-10.42,15.02-18.14,19.92c-7.73,4.9-16.44,7.35-26.11,7.35c-7.55,0-15.05-0.74-22.48-2.21
		c-7.44-1.47-12.16-3.04-14.16-4.69V45.88L256.18,42.16z M297.43,160.24c3.07,1.18,6.79,1.77,11.15,1.77
		c5.19,0,9.79-1.71,13.81-5.13c4.01-3.42,7.17-8.41,9.47-14.96c2.3-6.55,3.45-14.25,3.45-23.1c0-7.44-1.21-13.81-3.63-19.12
		c-2.42-5.31-5.64-9.32-9.65-12.04c-4.01-2.71-8.44-4.07-13.28-4.07c-3.66,0-6.99,0.56-10,1.68c-3.01,1.12-5.46,2.51-7.35,4.16v65.5
		C292.35,157.29,294.36,159.07,297.43,160.24z"/>
	<path d="M404.89,72.97V159l13.45,1.95v9.03h-48.33v-9.03l13.63-1.95V94.39l-11.68-8.5v-6.37l27.79-8.32L404.89,72.97z
		 M403.38,28.44c2.3,2.3,3.45,5.4,3.45,9.29c0,4.37-1.59,7.97-4.78,10.8c-3.19,2.83-6.9,4.25-11.15,4.25
		c-3.66,0-6.82-1.18-9.47-3.54c-2.66-2.36-3.98-5.43-3.98-9.21c0-4.13,1.65-7.67,4.96-10.62c3.3-2.95,6.96-4.43,10.98-4.43
		C397.74,24.99,401.08,26.14,403.38,28.44z"/>
	<path d="M446.67,158.83v-71.7h-17.88v-7.61l17.88-5.67v-7.79c0-7.91,1.92-15.19,5.75-21.86c3.83-6.67,8.7-11.95,14.61-15.84
		c5.9-3.89,11.8-5.84,17.7-5.84c3.42,0,6.46,0.21,9.12,0.62c2.66,0.42,4.51,0.92,5.58,1.5v17.53c-1.54-0.82-3.98-1.62-7.35-2.39
		c-3.36-0.77-6.64-1.15-9.83-1.15c-3.42,0-6.11,0.5-8.05,1.5c-1.95,1-3.39,2.89-4.34,5.67c-0.95,2.77-1.42,6.88-1.42,12.3v15.22
		h26.02v13.81h-26.02V159l20.18,1.95v9.03h-58.07v-9.03L446.67,158.83z"/>
	<path d="M519.78,197.77c5.19,0,10.03-2.19,14.52-6.55c4.48-4.37,8.14-11.51,10.98-21.42h-4.25L506.68,86.6l-8.5-1.95V73.32h43.9
		v11.33l-11.51,1.95l18.94,53.82l4.25,14.16l4.25-14.34l16.11-53.82l-12.92-1.77V73.32h39.66v11.33l-9.03,1.59
		c-6.37,18.53-12.75,36.29-19.12,53.29c-6.37,17-10.74,28.44-13.1,34.34c-4.25,10.62-8.38,18.88-12.39,24.78
		c-4.01,5.9-8.67,9.97-13.99,12.22c-3.66,2.95-8.03,4.43-13.1,4.43c-1.77,0-3.63-0.12-5.58-0.35c-1.95-0.24-3.22-0.53-3.81-0.88
		v-17.35C513.58,197.54,516.59,197.89,519.78,197.77z"/>
</g>
<g>
	<path class="st1" d="M107.2,48.86l-12.77,1.56v72.83c0,10.84-0.17,19.78-0.51,26.81c-0.34,7.04-1.08,13.03-2.21,17.99
		c-1.82,6.69-5.05,12.54-9.71,17.56c-4.66,5.02-9.99,8.97-16.01,11.85c-6.02,2.88-12.04,4.61-18.05,5.19l-4.77-6.75
		c13.28-4.73,21.97-11.94,26.06-21.62c1.59-4.73,2.64-9.97,3.15-15.74c0.51-5.77,0.77-13.43,0.77-23.01V50.41l-13.28-1.56V38.48
		h47.34V48.86z"/>
</g>
</svg>
