<?xml version="1.0" encoding="utf-8"?>
<!-- Generator: Adobe Illustrator 23.1.1, SVG Export Plug-In . SVG Version: 6.00 Build 0)  -->
<svg version="1.1" id="Layer_1" xmlns="http://www.w3.org/2000/svg" xmlns:xlink="http://www.w3.org/1999/xlink" x="0px" y="0px"
	 viewBox="0 0 162 217" style="enable-background:new 0 0 162 217;" xml:space="preserve">
<style type="text/css">
	.st0{fill:url(#SVGID_1_);}
	.st1{fill:#FFFFFF;}
	.st2{fill:url(#SVGID_2_);}
	.st3{clip-path:url(#SVGID_4_);}
	.st4{fill:#F93F60;}
	.st5{fill:#D80017;}
	.st6{fill:#01EB62;}
	.st7{fill:#00B84F;}
	.st8{clip-path:url(#SVGID_6_);}
	.st9{clip-path:url(#SVGID_8_);}
	.st10{clip-path:url(#SVGID_10_);}
	.st11{clip-path:url(#SVGID_12_);}
	.st12{clip-path:url(#SVGID_14_);}
	.st13{fill:#F5F5F5;}
	.st14{display:none;}
	.st15{display:inline;}
	.st16{fill:#00873B;}
	.st17{fill:#333333;}
	.st18{fill:#D70017;}
	.st19{fill:url(#SVGID_15_);}
	.st20{fill:url(#SVGID_16_);}
</style>
<linearGradient id="SVGID_1_" gradientUnits="userSpaceOnUse" x1="71.9939" y1="259.7277" x2="77.4422" y2="52.6916">
	<stop  offset="0.1815" style="stop-color:#680000"/>
	<stop  offset="0.2152" style="stop-color:#780003"/>
	<stop  offset="0.2908" style="stop-color:#950009"/>
	<stop  offset="0.3749" style="stop-color:#AE000E"/>
	<stop  offset="0.4692" style="stop-color:#C10012"/>
	<stop  offset="0.5795" style="stop-color:#CE0015"/>
	<stop  offset="0.7208" style="stop-color:#D60017"/>
	<stop  offset="1" style="stop-color:#D80017"/>
</linearGradient>
<path class="st0" d="M138.66,208.93H13.34c-4.05,0-7.34-3.28-7.34-7.34V13.4c0-4.05,3.28-7.34,7.34-7.34h125.33
	c4.05,0,7.34,3.28,7.34,7.34v188.2C146,205.65,142.72,208.93,138.66,208.93z"/>
<g>
	<path class="st1" d="M107.2,38.92l-12.77,1.56v72.83c0,10.84-0.17,19.78-0.51,26.81c-0.34,7.04-1.08,13.03-2.21,17.99
		c-1.82,6.69-5.05,12.54-9.71,17.56c-4.66,5.02-9.99,8.97-16.01,11.85c-6.02,2.88-12.04,4.61-18.05,5.19l-4.77-6.75
		c13.28-4.73,21.97-11.94,26.06-21.62c1.59-4.73,2.64-9.97,3.15-15.74c0.51-5.77,0.77-13.43,0.77-23.01V40.47l-13.28-1.56V28.54
		h47.34V38.92z"/>
</g>
</svg>
