<?xml version="1.0" encoding="utf-8"?>
<!-- Generator: Adobe Illustrator 21.1.0, SVG Export Plug-In . SVG Version: 6.00 Build 0)  -->
<svg version="1.1" id="圖層_1" xmlns="http://www.w3.org/2000/svg" xmlns:xlink="http://www.w3.org/1999/xlink" x="0px" y="0px"
	 viewBox="0 0 106.2 46.8" style="enable-background:new 0 0 106.2 46.8;" xml:space="preserve">
<style type="text/css">
	.st0{fill:url(#SVGID_1_);}
	.st1{fill:none;stroke:#000000;stroke-width:6.5;stroke-miterlimit:10;}
	.st2{stroke:#000000;stroke-width:2.5;stroke-miterlimit:10;}
	.st3{fill:#FFFFFF;}
	.st4{fill:#FF0000;}
	.st5{fill:none;stroke:#000000;stroke-width:5;stroke-miterlimit:10;}
	.st6{fill:none;stroke:#000000;stroke-width:4;stroke-miterlimit:10;}
	.st7{fill:none;stroke:#FF0000;stroke-width:4;stroke-miterlimit:10;}
	.st8{fill:none;stroke:#1F9631;stroke-width:4;stroke-miterlimit:10;}
	.st9{fill:none;stroke:#000000;stroke-width:2.9128;stroke-miterlimit:10;}
	.st10{fill:url(#SVGID_2_);}
	.st11{fill:url(#SVGID_3_);}
	.st12{opacity:0.18;fill:#7F1844;}
	.st13{fill:url(#SVGID_4_);}
	.st14{fill:#660933;}
	.st15{fill:#FFFFFF;stroke:#FFFFFF;stroke-width:2;stroke-miterlimit:10;}
	.st16{fill:url(#SVGID_5_);}
	.st17{stroke:#000000;stroke-width:2.9268;stroke-miterlimit:10;}
	.st18{stroke:#000000;stroke-width:5;stroke-miterlimit:10;}
	.st19{fill:#BC0000;stroke:#000000;stroke-width:5;stroke-miterlimit:10;}
	.st20{fill:#FF9400;stroke:#000000;stroke-width:5;stroke-miterlimit:10;}
	.st21{fill:#008837;stroke:#000000;stroke-width:5;stroke-miterlimit:10;}
	.st22{fill:#5FBFAB;stroke:#000000;stroke-width:5;stroke-miterlimit:10;}
	.st23{stroke:#000000;stroke-miterlimit:10;}
	.st24{fill:#3F3F3F;}
	.st25{fill:url(#SVGID_6_);}
	.st26{fill:url(#SVGID_7_);}
	.st27{fill:url(#SVGID_8_);}
	.st28{fill:url(#SVGID_9_);}
	.st29{fill:url(#SVGID_10_);}
	.st30{fill:url(#SVGID_11_);}
	.st31{fill:url(#SVGID_12_);}
	.st32{fill:url(#SVGID_13_);}
	.st33{fill:url(#SVGID_14_);}
	.st34{fill:url(#SVGID_15_);}
	.st35{fill:url(#SVGID_16_);}
	.st36{fill:url(#SVGID_17_);}
	.st37{fill:url(#SVGID_18_);}
	.st38{fill:url(#SVGID_19_);}
	.st39{fill:url(#SVGID_20_);}
	.st40{fill:url(#SVGID_21_);}
	.st41{fill:url(#SVGID_22_);}
	.st42{fill:url(#SVGID_23_);}
	.st43{fill:url(#SVGID_24_);}
	.st44{fill:url(#SVGID_25_);}
	.st45{fill:url(#SVGID_26_);}
	.st46{fill:url(#SVGID_27_);}
	.st47{fill:url(#SVGID_28_);}
	.st48{fill:url(#SVGID_29_);}
	.st49{fill:url(#SVGID_30_);}
	.st50{fill:url(#SVGID_31_);}
	.st51{fill:url(#SVGID_32_);}
	.st52{fill:url(#SVGID_33_);}
	.st53{fill:url(#SVGID_34_);}
	.st54{fill:url(#SVGID_35_);}
	.st55{fill:url(#SVGID_36_);}
	.st56{fill:url(#SVGID_37_);}
	.st57{fill:none;stroke:#000000;stroke-width:2.1328;stroke-miterlimit:10;}
	.st58{stroke:#000000;stroke-width:2.9793;stroke-miterlimit:10;}
	.st59{clip-path:url(#SVGID_39_);fill:#E30000;}
	.st60{clip-path:url(#SVGID_39_);fill:#FF1300;}
	.st61{opacity:0.32;clip-path:url(#SVGID_39_);fill:#FCA285;}
	.st62{clip-path:url(#SVGID_41_);fill:#DE0000;}
	.st63{clip-path:url(#SVGID_41_);fill:#FD1813;}
	.st64{clip-path:url(#SVGID_43_);fill:#DE0000;}
	.st65{clip-path:url(#SVGID_43_);fill:#FD1813;}
	.st66{fill:#F5F5F5;}
	.st67{fill:#333333;}
	.st68{fill:#666666;}
	.st69{fill:#00873B;}
	.st70{stroke:#000000;stroke-width:3;stroke-miterlimit:10;}
	.st71{fill:url(#SVGID_44_);}
	.st72{fill:url(#SVGID_45_);}
	.st73{fill:url(#SVGID_46_);}
	.st74{fill:url(#SVGID_47_);}
	.st75{fill:url(#SVGID_48_);}
	.st76{fill:url(#SVGID_49_);}
	.st77{fill:#D80017;}
	.st78{fill:url(#SVGID_50_);}
	.st79{fill:url(#SVGID_51_);}
	.st80{fill:url(#SVGID_52_);}
	.st81{fill:url(#SVGID_53_);}
	.st82{fill:url(#SVGID_54_);}
	.st83{fill:url(#SVGID_55_);}
	.st84{fill:url(#SVGID_56_);}
	.st85{fill:url(#SVGID_57_);}
	.st86{fill:url(#SVGID_58_);}
	.st87{fill:url(#SVGID_59_);}
</style>
<g>
	<path d="M65.3,8.8c0-0.8,0.3-1.5,0.8-2.1c0.5-0.5,1.3-0.8,2.2-0.8c0.9,0,1.7,0.3,2.2,0.8c0.6,0.5,0.8,1.2,0.8,2.1
		c0,0.8-0.3,1.5-0.8,2.1c-0.6,0.5-1.3,0.8-2.2,0.8c-0.9,0-1.7-0.3-2.2-0.8C65.6,10.3,65.3,9.6,65.3,8.8z M71.1,34.9h-5.5V14.1h5.5
		V34.9z"/>
	<path d="M75.3,34.9V18.2H71v-4.1h4.3v-1.8c0-2.3,0.7-4.1,2-5.4C78.6,5.7,80.4,5,82.8,5c0.8,0,1.7,0.1,2.8,0.4l-0.1,4.3
		c-0.5-0.1-1-0.2-1.7-0.2c-2,0-3.1,1-3.1,2.9v1.7h4.1v4.1h-4.1v16.7H75.3z"/>
	<path d="M93.1,27.1l3.8-12.9h5.8l-8.2,24l-0.5,1.1c-1.2,2.7-3.2,4.1-6,4.1c-0.8,0-1.6-0.1-2.4-0.4v-4.2l0.8,0c1,0,1.8-0.2,2.3-0.5
		c0.5-0.3,0.9-0.9,1.2-1.6l0.6-1.7l-7.1-20.8h5.9L93.1,27.1z"/>
</g>
<g>
	<path d="M16.4,26.3c0,1.4-0.3,2.5-1,3.2c-0.6,0.8-1.5,1.1-2.6,1.1c-1.2,0-2.1-0.3-2.7-1c-0.6-0.7-0.8-1.7-0.8-3H3.6
		c0,2.8,0.8,4.9,2.4,6.4c1.6,1.5,3.9,2.3,6.8,2.3c1.8,0,3.4-0.4,4.8-1.1c1.4-0.7,2.5-1.8,3.3-3.2c0.8-1.4,1.2-2.9,1.2-4.7V7h-5.7
		V26.3z"/>
	<path d="M64.2,21.8c-1.3-4.1-4.3-6.6-8.5-7.2c-2.2-0.3-4.2-0.1-6.1,0.8V7h-5v13l2.8,3.6l0-0.1l0,0l0.3-0.3c0.3-0.3,0.6-0.6,0.8-0.9
		c0.5-0.6,1-1.2,1.6-1.7c1.9-1.8,4.7-2.1,6.9-0.8c2.2,1.3,3.3,3.7,2.8,6.3c-0.4,2.1-1.7,3.6-3.8,4.3c-1.6,0.6-3.9,0.8-5.9-1.1
		c-0.7-0.7-2.4-3-4.2-5.4c-2-2.8-4.2-5.6-5.2-6.7c-3.3-3.4-8.7-3.9-12.9-1.3c-4,2.5-5.9,7.5-4.5,12c1.3,4.2,4.2,6.7,8.5,7.4
		c4.2,0.6,7.9-1,10.9-4.8l0.1-0.2l-0.1-0.2c-0.5-0.7-1-1.4-1.4-2.1c-0.3-0.4-0.6-0.9-0.9-1.3l-0.2-0.3L40,26.9
		c-0.6,0.6-1,1.1-1.6,1.6l-0.4,0.4c-1.9,1.9-4,2.5-6.3,1.8c-2.4-0.8-3.8-2.5-4.1-5.2c-0.2-2.1,1.1-4.5,3.1-5.5
		c2.2-1.2,4.9-0.9,6.5,0.7c0.8,0.8,2.5,3.1,4.3,5.5c2.1,2.8,4.2,5.6,5.3,6.7c1.9,1.9,4.5,2.9,7.1,2.9c2,0,4-0.6,5.8-1.7
		C63.9,31.3,65.7,26.3,64.2,21.8z"/>
</g>
</svg>
