<svg id="Layer_35" enable-background="new 0 0 64 64" height="512" viewBox="0 0 64 64" width="512" xmlns="http://www.w3.org/2000/svg"><path d="m36 6v4h-34v-4c0-2.21 1.79-4 4-4h26c2.21 0 4 1.79 4 4z" fill="#969faa"/><path d="m36 54v4c0 2.21-1.79 4-4 4h-26c-2.21 0-4-1.79-4-4v-4z" fill="#969faa"/><path d="m2 10h34v44h-34z" fill="#ccd1d9"/><path d="m31 14h-24c-.55 0-1 .45-1 1v34c0 .55.45 1 1 1h24c.55 0 1-.45 1-1v-34c0-.55-.45-1-1-1z" fill="#69d6f4"/><path d="m24.53 41.26-5.53 4.74-7-6 1.11-4.44z" fill="#fcd770"/><path d="m23.14 28.57 1.72 6.86-10.42-5.21 1.34-5.33z" fill="#fcd770"/><path d="m24.86 35.43 1.14 4.57-1.47 1.26-11.42-5.7 1.33-5.34z" fill="#ff826e"/><path d="m21 20 2.14 8.57-7.36-3.68 1.22-4.89z" fill="#ff826e"/><path d="m62 20v24l-12.35-10.8v-.01c1.12-.52 2.13-1.28 2.95-2.23z" fill="#dfb28b"/><path d="m42.35 33.19-12.35 10.81v-24l9.4 10.96c.82.95 1.83 1.71 2.95 2.23z" fill="#dfb28b"/><path d="m49.65 33.2 12.35 10.8h-26-4-2l12.35-10.81c.01 0 .01.01.02.01 1.12.52 2.36.8 3.63.8 1.28 0 2.52-.28 3.65-.81z" fill="#d3a06c"/><path d="m62 20-9.4 10.96c-.82.95-1.83 1.71-2.95 2.23-1.13.53-2.37.81-3.65.81-1.27 0-2.51-.28-3.63-.8-.01 0-.01-.01-.02-.01-1.12-.52-2.13-1.28-2.95-2.23l-9.4-10.96h2 4z" fill="#cf9e76"/><path d="m22 5h2v2h-2z"/><path d="m14 5h2v2h-2z"/><path d="m18 5h2v2h-2z"/><path d="m14 57h10v2h-10z"/><path d="m63 19h-26v-13c0-2.757-2.243-5-5-5h-26c-2.757 0-5 2.243-5 5v52c0 2.757 2.243 5 5 5h26c2.757 0 5-2.243 5-5v-13h26zm-17 14c-2.25 0-4.38-.979-5.845-2.688l-7.982-9.312h27.653l-7.982 9.312c-1.464 1.709-3.594 2.688-5.844 2.688zm-15-10.298 7.638 8.911c.586.684 1.264 1.264 1.998 1.752l-9.636 8.431zm0-3.702h-2v26h2v4h-24v-34h24zm1.662 24 9.885-8.649c1.091.417 2.256.649 3.453.649s2.362-.232 3.454-.649l9.884 8.649zm18.703-9.635c.734-.488 1.412-1.068 1.998-1.752l7.637-8.911v19.094zm-45.365-30.365h26c1.654 0 3 1.346 3 3v3h-32v-3c0-1.654 1.346-3 3-3zm26 58h-26c-1.654 0-3-1.346-3-3v-3h32v3c0 1.654-1.346 3-3 3zm3-8h-32v-42h32v8h-2v-4c0-1.103-.897-2-2-2h-24c-1.103 0-2 .897-2 2v34c0 1.103.897 2 2 2h24c1.103 0 2-.897 2-2v-4h2z"/><path d="m19 47.317 8.12-6.96-4.84-19.357h2.72v-2h-12v2h2.72l-4.84 19.357zm-5.88-7.674.659-2.635 8.953 4.477-3.732 3.198zm10.24-6.081-7.751-3.875.836-3.346 5.839 2.92zm.639 2.556.881 3.525-.501.429-10.103-5.052.836-3.345zm-3.779-15.118 1.426 5.705-4.704-2.352.838-3.353z"/><path d="m41 23h2v2h-2z"/><path d="m45 23h2v2h-2z"/><path d="m49 23h2v2h-2z"/><path d="m49 39h2v2h-2z"/><path d="m45 39h2v2h-2z"/><path d="m41 39h2v2h-2z"/></svg>