<?xml version="1.0" encoding="UTF-8" standalone="no"?>
<!-- Generator: Adobe Illustrator 16.0.0, SVG Export Plug-In . SVG Version: 6.00 Build 0)  -->

<svg
   xmlns:dc="http://purl.org/dc/elements/1.1/"
   xmlns:cc="http://creativecommons.org/ns#"
   xmlns:rdf="http://www.w3.org/1999/02/22-rdf-syntax-ns#"
   xmlns:svg="http://www.w3.org/2000/svg"
   xmlns="http://www.w3.org/2000/svg"
   xmlns:sodipodi="http://sodipodi.sourceforge.net/DTD/sodipodi-0.dtd"
   xmlns:inkscape="http://www.inkscape.org/namespaces/inkscape"
   version="1.1"
   id="Capa_1"
   x="0px"
   y="0px"
   width="142.179px"
   height="142.179px"
   viewBox="0 0 142.179 142.179"
   style="enable-background:new 0 0 142.179 142.179;"
   xml:space="preserve"
   sodipodi:docname="avatar-2.svg"
   inkscape:version="0.92.4 (f8dce91, 2019-08-02)"><metadata
   id="metadata53"><rdf:RDF><cc:Work
       rdf:about=""><dc:format>image/svg+xml</dc:format><dc:type
         rdf:resource="http://purl.org/dc/dcmitype/StillImage" /></cc:Work></rdf:RDF></metadata><defs
   id="defs51" /><sodipodi:namedview
   pagecolor="#ffffff"
   bordercolor="#666666"
   borderopacity="1"
   objecttolerance="10"
   gridtolerance="10"
   guidetolerance="10"
   inkscape:pageopacity="0"
   inkscape:pageshadow="2"
   inkscape:window-width="1517"
   inkscape:window-height="845"
   id="namedview49"
   showgrid="false"
   inkscape:zoom="1.6598794"
   inkscape:cx="71.0895"
   inkscape:cy="71.0895"
   inkscape:window-x="83"
   inkscape:window-y="27"
   inkscape:window-maximized="1"
   inkscape:current-layer="Capa_1" />
<g
   id="g16"
   style="fill:#4d4d4d">
	<g
   id="g14"
   style="fill:#4d4d4d">
		<path
   d="M112.998,0h-83.82C21.95,0,16.079,5.865,16.079,13.094v115.991c0,7.228,5.872,13.094,13.099,13.094h83.82    c7.234,0,13.103-5.866,13.103-13.094V13.094C126.1,5.871,120.232,0,112.998,0z M71.09,137.28c-4.158,0-7.528-3.37-7.528-7.528    c0-4.159,3.371-7.53,7.528-7.53c4.159,0,7.533,3.371,7.533,7.53C78.624,133.91,75.25,137.28,71.09,137.28z M117.692,112.28    c0,2.588-2.106,4.688-4.694,4.688h-83.82c-2.587,0-4.695-2.101-4.695-4.688V13.1c0-2.588,2.108-4.689,4.695-4.689h83.82    c2.588,0,4.694,2.101,4.694,4.689V112.28z"
   id="path2"
   style="fill:#4d4d4d" />
		<path
   d="M71.09,82.299l-7.256-7.256l6.107-14.769h-0.065l-2.378-2.722c1.15,0.41,2.343,0.662,3.587,0.662    c1.239,0,2.439-0.246,3.581-0.657l-2.377,2.717h-0.056l6.104,14.769L71.09,82.299c12.955,0,25.92-2.123,25.92-6.392    c0-7.212-8.306-16.944-19.525-19.784c4.688-3.154,7.918-9.368,7.918-14.971c0-7.907-6.408-14.312-14.312-14.312    c-7.9,0-14.311,6.41-14.311,14.312c0,5.603,3.229,11.817,7.917,14.971c-11.211,2.84-19.52,12.583-19.52,19.784    C45.176,80.176,58.131,82.299,71.09,82.299z"
   id="path4"
   style="fill:#4d4d4d" />
		<path
   d="M105.556,90.911H36.621c-0.673,0-1.218,0.536-1.218,1.215c0,0.68,0.545,1.221,1.218,1.221h68.936    c0.673,0,1.214-0.541,1.214-1.221C106.77,91.447,106.229,90.911,105.556,90.911z"
   id="path6"
   style="fill:#4d4d4d" />
		<path
   d="M105.556,96.454H36.621c-0.673,0-1.218,0.542-1.218,1.221c0,0.668,0.545,1.215,1.218,1.215h68.936    c0.673,0,1.214-0.547,1.214-1.215C106.77,96.996,106.229,96.454,105.556,96.454z"
   id="path8"
   style="fill:#4d4d4d" />
		<path
   d="M105.556,102H36.621c-0.673,0-1.218,0.54-1.218,1.213s0.545,1.215,1.218,1.215h68.936c0.673,0,1.214-0.542,1.214-1.215    S106.229,102,105.556,102z"
   id="path10"
   style="fill:#4d4d4d" />
		<path
   d="M69.186,107.537H36.621c-0.673,0-1.218,0.546-1.218,1.219s0.545,1.215,1.218,1.215h32.565    c0.672,0,1.216-0.542,1.216-1.215S69.858,107.537,69.186,107.537z"
   id="path12"
   style="fill:#4d4d4d" />
	</g>
</g>
<g
   id="g18">
</g>
<g
   id="g20">
</g>
<g
   id="g22">
</g>
<g
   id="g24">
</g>
<g
   id="g26">
</g>
<g
   id="g28">
</g>
<g
   id="g30">
</g>
<g
   id="g32">
</g>
<g
   id="g34">
</g>
<g
   id="g36">
</g>
<g
   id="g38">
</g>
<g
   id="g40">
</g>
<g
   id="g42">
</g>
<g
   id="g44">
</g>
<g
   id="g46">
</g>
</svg>