<svg enable-background="new 0 0 110 110" height="512" viewBox="0 0 110 110" width="512" xmlns="http://www.w3.org/2000/svg"><path d="m94.1945496 45.3819046c-1.6639633 0-1.5998154.087822-2.9224777-.0315971.2955246-1.2374001.4686127-2.5226631.4686127-3.8506737 0-8.3778992-6.2278976-15.283741-14.3030701-16.3863907-3.583725-11.4711704-14.2907563-19.7970276-26.9431038-19.7970276-14.3395424 0-26.1726875 10.6965752-27.9765148 24.5445042-10.8250542.5524864-19.4322662 9.5042477-19.4322662 20.466608 0 11.3182983 9.1754961 20.49403 20.4941406 20.49403h70.6146774c7.0247955 0 12.7197189-5.694931 12.7197189-12.7197266s-5.6949215-12.7197265-12.719717-12.7197265z" fill="#ededed"/><path d="m63.8085403 15.3520384c-3.4867249-1.8047571-7.1638451-2.8753443-10.866291-3.0765438-1.8482056-.0710936-3.6967545-.0125456-5.490593.3419933-.9059792.1212769-1.7816391.3856716-2.6679878.5924473-.8553276.3131838-1.7387733.5496979-2.5537949.9613905-1.6867294.68538-3.2567177 1.636548-4.7306328 2.7108517-1.5161972 1.035738-2.79356 2.3702545-4.0304985 3.7400837l-.8865776 1.0724468c-.2620735.3819542-.5206566.7671604-.7986431 1.1440029-.290184.3708019-.5147324.7792435-.7543831 1.1830368-.226757.4089031-.5070648.7978287-.6943245 1.2295017-.9181767 1.6639633-1.5351353 3.4733658-2.1546497 5.3468933-.010107-1.9604187.2578888-3.9589405.8584671-5.8807926.646349-1.8935089 1.4583492-3.7888737 2.6576481-5.4444733 2.2996235-3.3655643 5.5953732-6.1261358 9.4087582-7.7236528 3.7891083-1.6523466 8.0676193-2.1258392 12.0860367-1.4790268 4.0262031.6472778 7.8254165 2.5082588 10.6174659 5.2818413z" fill="#ededed"/><path d="m52.8342743 86.0235977v-26.4897194h-17.2969589v26.4897194h-10.0119992l18.6603794 18.6601868 18.6603814-18.6601868z" fill="#4da0dc"/><path d="m57.1657257 55.6191063v26.489727h17.2969589v-26.489727h10.0120011l-18.6603852-18.660183-18.6603775 18.660183z" fill="#dd584d"/></svg>