<svg enable-background="new 0 0 24 24" height="512" viewBox="0 0 24 24" width="512" xmlns="http://www.w3.org/2000/svg"><path d="m17.678 1.2h-11.356c-1.335 0-2.422 1.092-2.422 2.435v17.608c0 .585.322 1.115.841 1.383.516.265 1.13.222 1.603-.114l5.544-3.945c.067-.047.157-.047.225 0l5.544 3.945c.268.19.58.287.894.287.242 0 .484-.057.708-.172.519-.268.841-.798.841-1.383v-17.609c0-1.343-1.087-2.435-2.422-2.435z" fill="#2196f3"/><path d="m16.52 10.978-4.029 4.263c-.127.134-.305.211-.49.211s-.363-.076-.49-.211l-4.031-4.263c-1.168-1.235-1.168-3.245 0-4.48 1.153-1.22 3.184-1.22 4.339 0l.181.192.181-.192c1.154-1.22 3.185-1.22 4.339 0 1.168 1.235 1.168 3.245 0 4.48z" fill="#eceff1"/><path d="m21 22.271v-19.565c0-1.492-1.208-2.706-2.691-2.706h-12.618c-1.483 0-2.691 1.214-2.691 2.706v19.564c0 .65.358 1.239.934 1.537.573.295 1.255.247 1.781-.127l6.16-4.383c.074-.053.175-.053.25 0l6.16 4.383c.297.211.645.318.994.318.269 0 .538-.063.787-.191.576-.297.934-.886.934-1.536zm-1.5 0c0 .122-.077.181-.122.204-.053.026-.134.047-.224-.017l-6.16-4.383c-.595-.423-1.394-.423-1.988 0l-6.16 4.383c-.089.063-.171.043-.224.017-.045-.024-.122-.082-.122-.204v-19.565c0-.665.535-1.206 1.191-1.206h12.617c.657 0 1.191.541 1.191 1.206v19.565z"/><path d="m12.201 6.052-.201.213-.201-.213c-1.283-1.355-3.54-1.355-4.821 0-1.298 1.372-1.298 3.605 0 4.978l4.477 4.736c.142.149.339.234.545.234s.403-.085.545-.234l4.477-4.736c1.298-1.372 1.298-3.605 0-4.978-1.282-1.356-3.539-1.356-4.821 0zm3.731 3.946-3.932 4.16-3.932-4.16c-.76-.804-.76-2.111 0-2.915.355-.376.824-.583 1.321-.583.496 0 .965.207 1.32.583l.746.789c.283.299.807.299 1.09 0l.746-.789c.711-.752 1.93-.752 2.641 0 .76.804.76 2.111 0 2.915z"/></svg>