<svg id="Layer_1" enable-background="new 0 0 512 512" height="512" viewBox="0 0 512 512" width="512" xmlns="http://www.w3.org/2000/svg"><path d="m381.5 90.26v15h-30v-15c0-23.85-19.38-43.26-43.19-43.26h-97.41c-23.82 0-43.19 19.41-43.19 43.26v15h-30v-15c0-40.4 32.83-73.26 73.19-73.26h97.41c40.35 0 73.19 32.86 73.19 73.26z" fill="#2a5959"/><path d="m308.31 47h-52.31v-30h52.31c40.35 0 73.19 32.86 73.19 73.26v15h-30v-15c0-23.85-19.38-43.26-43.19-43.26z" fill="#2b4747"/><path d="m152.711 82.76c-20.059 0-36.378 16.335-36.378 36.413v24.661c0 4.143 3.357 7.5 7.5 7.5h57.755c4.143 0 7.5-3.357 7.5-7.5v-24.661c0-20.078-16.318-36.413-36.377-36.413z" fill="#ffdc48"/><path d="m366.496 82.76c-20.059 0-36.378 16.335-36.378 36.413v24.661c0 4.143 3.357 7.5 7.5 7.5h57.755c4.143 0 7.5-3.357 7.5-7.5v-24.661c0-20.078-16.318-36.413-36.377-36.413z" fill="#ffc200"/><path d="m492 272.38v172.4c0 27.69-22.51 50.22-50.18 50.22h-371.64c-27.67 0-50.18-22.53-50.18-50.22v-172.4c0-8.29 6.72-15 15-15h442c8.28 0 15 6.71 15 15z" fill="#ff5c5c"/><path d="m492 272.38v172.4c0 27.69-22.51 50.22-50.18 50.22h-185.82v-237.62h221c8.28 0 15 6.71 15 15z" fill="#e20059"/><path d="m512 179.16v88.23c0 6.89-4.69 12.89-11.37 14.56l-212.13 52.87c-1.18.3-2.4.45-3.62.45h-57.76c-1.22 0-2.44-.15-3.62-.45l-212.13-52.87c-6.68-1.67-11.37-7.67-11.37-14.56v-88.23c0-27.7 22.51-50.23 50.18-50.23h411.64c27.67 0 50.18 22.53 50.18 50.23z" fill="#ffb454"/><path d="m512 179.16v88.23c0 6.89-4.69 12.89-11.37 14.56l-212.13 52.87c-1.18.3-2.4.45-3.62.45h-28.88v-206.34h205.82c27.67 0 50.18 22.53 50.18 50.23z" fill="#ff7d47"/><path d="m292.38 285.66v83.61c0 2.46-1.21 4.76-3.23 6.16l-28.88 20.03c-1.28.89-2.78 1.33-4.27 1.33s-2.99-.44-4.27-1.33l-28.88-20.03c-2.02-1.4-3.23-3.7-3.23-6.16v-83.61c0-4.14 3.36-7.5 7.5-7.5h57.76c4.14 0 7.5 3.36 7.5 7.5z" fill="#ffdc48"/><path d="m292.38 285.66v83.61c0 2.46-1.21 4.76-3.23 6.16l-28.88 20.03c-1.28.89-2.78 1.33-4.27 1.33v-118.63h28.88c4.14 0 7.5 3.36 7.5 7.5z" fill="#ffc200"/></svg>