<svg height="512" viewBox="0 0 64 64" width="512" xmlns="http://www.w3.org/2000/svg"><g id="Cloud_data" data-name="Cloud data"><path d="m54 41v-36a2.006 2.006 0 0 0 -2-2h-26v14a2 2 0 0 1 -2 2h-14v22z" fill="#d1e7f8"/><path d="m26 17v-14l-16 16h14a2 2 0 0 0 2-2z" fill="#3d9ae2"/><path d="m49 37a11.966 11.966 0 0 0 -4.4.844 12.986 12.986 0 0 0 -24.675-1.644 7 7 0 0 0 -10.925 5.8 7.079 7.079 0 0 0 .156 1.466 9 9 0 0 0 2.844 17.534h37a12 12 0 0 0 0-24z" fill="#3d9ae2"/><path d="m5 52a9 9 0 0 1 6.156-8.534 7.079 7.079 0 0 1 -.156-1.466 7 7 0 0 1 6.015-6.923 6.995 6.995 0 0 0 -7.859 8.389 9 9 0 0 0 2.844 17.534h2a9 9 0 0 1 -9-9z" fill="#1e81ce"/><path d="m36.32 28.68-4.32 4.32h6v18h16v-12.92-.08-5h6l-6-6-8-8z" fill="#ff3051"/></g></svg>