<svg id="flat" height="512" viewBox="0 0 512 512" width="512" xmlns="http://www.w3.org/2000/svg"><path d="m488 244a76.00043 76.00043 0 0 1 -76 76h-300a88 88 0 0 1 0-176h64v-12a76 76 0 0 1 152 0v4h24a32.004 32.004 0 0 1 32 32h28a76.00466 76.00466 0 0 1 76 76z" fill="#548aff"/><path d="m488 244a76.00043 76.00043 0 0 1 -76 76h-300a63.99511 63.99511 0 0 1 64-64h132a36 36 0 1 0 0-72 28.0051 28.0051 0 0 1 -28-28v-94.67a76.06118 76.06118 0 0 1 48 70.67v4h24a32.004 32.004 0 0 1 32 32h28a76.00466 76.00466 0 0 1 76 76z" fill="#486be0"/><path d="m312 456h64v-72l-16-16v-136h-48z" fill="#eda600"/><path d="m160 232v224h152v-96l16-16v-112z" fill="#f6bb00"/><g fill="#42566b"><path d="m272 272v-72h24l-48-48-48 48h24v72z"/><path d="m224 288h16v16h-16z"/><path d="m256 288h16v16h-16z"/><path d="m224 320h16v16h-16z"/><path d="m256 320h16v16h-16z"/></g></svg>