<?xml version="1.0"?>
<svg xmlns="http://www.w3.org/2000/svg" viewBox="0 0 64 64" width="512" height="512"><g id="Cloud_data" data-name="Cloud data"><path d="M55,39.774V51a1,1,0,0,1-1,1H38a1,1,0,0,1-1-1V34H32a1,1,0,0,1-.707-1.707l3.069-3.069A12.939,12.939,0,0,0,20.31,36.318a1,1,0,0,1-.6.515.991.991,0,0,1-.786-.079A6.009,6.009,0,0,0,10,42a6.051,6.051,0,0,0,.128,1.261,1,1,0,0,1-.664,1.159A8,8,0,0,0,12,60H49a11,11,0,0,0,6-20.226Z"/><path d="M11,35.776a7.973,7.973,0,0,1,7.972-1.208A14.95,14.95,0,0,1,36.026,27.56l9.267-9.267a1,1,0,0,1,1.414,0L53,24.586V5a1,1,0,0,0-1-1H27V17a3,3,0,0,1-3,3H11Z"/><path d="M34.414,32H38a1,1,0,0,1,1,1V50H53V33a1,1,0,0,1,1-1h3.586L46,20.414Z"/><path d="M25,17V5.414L12.414,18H24A1,1,0,0,0,25,17Z"/></g></svg>
