<?xml version="1.0" encoding="UTF-8" standalone="no"?>
<!-- Generator: Adobe Illustrator 19.0.0, SVG Export Plug-In . SVG Version: 6.00 Build 0)  -->

<svg
   xmlns:dc="http://purl.org/dc/elements/1.1/"
   xmlns:cc="http://creativecommons.org/ns#"
   xmlns:rdf="http://www.w3.org/1999/02/22-rdf-syntax-ns#"
   xmlns:svg="http://www.w3.org/2000/svg"
   xmlns="http://www.w3.org/2000/svg"
   xmlns:sodipodi="http://sodipodi.sourceforge.net/DTD/sodipodi-0.dtd"
   xmlns:inkscape="http://www.inkscape.org/namespaces/inkscape"
   version="1.1"
   id="Capa_1"
   x="0px"
   y="0px"
   viewBox="0 0 394.8 394.8"
   style="enable-background:new 0 0 394.8 394.8;"
   xml:space="preserve"
   sodipodi:docname="document.svg"
   inkscape:version="0.92.4 (f8dce91, 2019-08-02)"><metadata
   id="metadata51"><rdf:RDF><cc:Work
       rdf:about=""><dc:format>image/svg+xml</dc:format><dc:type
         rdf:resource="http://purl.org/dc/dcmitype/StillImage" /></cc:Work></rdf:RDF></metadata><defs
   id="defs49" /><sodipodi:namedview
   pagecolor="#ffffff"
   bordercolor="#666666"
   borderopacity="1"
   objecttolerance="10"
   gridtolerance="10"
   guidetolerance="10"
   inkscape:pageopacity="0"
   inkscape:pageshadow="2"
   inkscape:window-width="1517"
   inkscape:window-height="845"
   id="namedview47"
   showgrid="false"
   inkscape:zoom="0.59777104"
   inkscape:cx="197.39999"
   inkscape:cy="197.39999"
   inkscape:window-x="83"
   inkscape:window-y="27"
   inkscape:window-maximized="1"
   inkscape:current-layer="Capa_1" />
<g
   id="g14"
   style="fill:#ffffff">
	<g
   id="g12"
   style="fill:#ffffff">
		<g
   id="g10"
   style="fill:#ffffff">
			<path
   d="M218.4,167.6c-2.8-2.4-6-4-9.6-5.2c-3.6-0.8-7.6-1.2-12.4-1.2H178c-3.2,0-5.2,0.8-6.8,2c-1.2,1.2-2,3.6-2,6.8v51.6     c0,2.4,0,4,0.8,5.6c0.4,1.6,1.2,2.4,2.4,3.2c1.2,0.8,3.2,1.2,6,1.2h18.4c3.2,0,6-0.4,8.8-0.8c2.4-0.4,4.8-1.2,7.2-2     c2.4-1.2,4.4-2.4,6-4c2.4-2.4,4.4-4.8,6-7.6c1.6-2.8,2.8-6,3.6-9.6c0.8-3.6,1.2-7.2,1.2-11.6C229.6,183.6,226,174,218.4,167.6z      M208,217.2c-1.2,0.8-2.4,1.6-3.6,2c-1.6,0.4-2.8,0.8-4,0.8s-3.2,0-5.6,0H184v-48h9.6c4.4,0,8,0.4,11.2,1.6     c3.2,0.8,5.6,3.2,7.6,6.8c2,3.6,3.2,8.8,3.2,15.6C215.2,206.4,212.8,213.2,208,217.2z"
   id="path2"
   style="fill:#ffffff" />
			<path
   d="M345.6,78.8l-0.4-0.4V78l-76-76l-0.4-0.4c0,0-0.4,0-0.4-0.4c0,0-0.4,0-0.4-0.4C266.8,0,265.6,0,264,0H75.6     c-7.2,0-14,2.8-18.8,7.6L56.4,8c-4.8,4.8-8,12-8,19.2v340.4c0,7.6,3.2,14.4,8,19.2c4.8,4.8,12,8,19.2,8h243.6     c7.6,0,14.4-3.2,19.2-8s8-12,8-19.2V82.8C346.4,81.2,346,80,345.6,78.8z M271.6,28.8L316.8,74h-33.2c-3.2,0-6.4-1.2-8.4-3.6     c-2-2-3.6-5.2-3.6-8.4V28.8z M329.2,367.6c0,2.8-1.2,5.2-3.2,7.2s-4.4,3.2-7.2,3.2H75.6c-2.8,0-5.2-1.2-7.2-2.8     c-2-2-2.8-4.4-2.8-7.2V26.8c0-2.8,1.2-5.2,3.2-7.2l0.4-0.4c2-1.6,4.4-2.8,6.8-2.8h179.2v45.2c0,8,3.2,15.2,8.8,20.8     c5.2,5.2,12.8,8.4,20.8,8.4h44.4V367.6z"
   id="path4"
   style="fill:#ffffff" />
			<path
   d="M150.8,166.8c-2-2-4.4-3.2-7.6-4c-2.8-0.8-7.2-1.2-12.4-1.2h-18.4c-3.2,0-5.6,0.8-6.8,2c-1.6,1.2-2,3.6-2,6.8v54.4     c0,2.8,0.8,4.8,2,6.4c1.2,1.6,3.2,2,5.2,2s3.6-0.8,5.2-2.4c1.2-1.6,2-3.6,2-6.4v-20h13.2c8.8,0,15.2-2,19.6-5.6     c4.4-3.6,6.8-9.2,6.8-16.4c0-3.2-0.4-6.4-1.6-9.2C154.4,170.8,152.8,168.4,150.8,166.8z M141.2,189.2c-1.2,1.6-2.8,2.8-5.2,3.6     c-2.4,0.8-5.2,1.2-8.4,1.2H118v-21.6h9.6c6.4,0,10.4,1.2,12.8,3.2c2,2,2.8,4.4,2.8,7.6C142.8,185.6,142.4,187.6,141.2,189.2z"
   id="path6"
   style="fill:#ffffff" />
			<path
   d="M250.8,160.8c-2.4,0.4-4,0.8-5.2,1.6c-1.2,0.4-2.4,1.6-2.8,2.8c-0.8,1.2-0.8,2.8-0.8,5.2v54c0,2.8,0.8,5.2,2,6.4     c1.2,1.6,3.2,2,5.2,2s3.6-0.8,5.2-2c1.2-1.6,2-3.6,2-6.4v-23.2H280c2,0,3.6-0.4,4.8-1.6c1.2-0.8,1.6-2.4,1.6-4     c0-1.6-0.4-2.8-1.6-4c-1.2-0.8-2.8-1.6-4.8-1.6h-23.6v-18h28c2.4,0,4-0.4,5.2-1.6c1.2-1.2,1.6-2.4,1.6-4c0-1.6-0.4-2.8-1.6-4     c-1.2-1.2-2.8-1.6-5.2-1.6H250.8z"
   id="path8"
   style="fill:#ffffff" />
		</g>
	</g>
</g>
<g
   id="g16">
</g>
<g
   id="g18">
</g>
<g
   id="g20">
</g>
<g
   id="g22">
</g>
<g
   id="g24">
</g>
<g
   id="g26">
</g>
<g
   id="g28">
</g>
<g
   id="g30">
</g>
<g
   id="g32">
</g>
<g
   id="g34">
</g>
<g
   id="g36">
</g>
<g
   id="g38">
</g>
<g
   id="g40">
</g>
<g
   id="g42">
</g>
<g
   id="g44">
</g>
</svg>