<svg height="512pt" viewBox="0 -11 512 512" width="512pt" xmlns="http://www.w3.org/2000/svg"><path d="m512 293.332031c0-12.820312-5.097656-24.789062-13.910156-33.578125 9.921875-10.878906 14.976562-25.515625 13.675781-40.832031-2.625-27.070313-27.050781-48.253906-55.660156-48.253906h-131.730469c6.503906-19.796875 16.957031-56.085938 16.957031-85.335938 0-46.269531-39.316406-85.332031-64-85.332031-22.269531 0-38.035156 12.5-38.675781 13.011719-2.539062 2.050781-3.988281 5.101562-3.988281 8.320312v72.34375l-61.460938 133.117188-17.984375 9.003906c-3.605468 1.8125-5.890625 5.503906-5.890625 9.535156v192c0 2.839844 1.132813 5.546875 3.117188 7.554688 9.171875 9.171875 23.742187 14.867187 34.152343 17.960937 12.585938 4.054688 26.5625 6.507813 37.398438 6.507813h195.839844c23.210937 0 43.5625-15.59375 48.425781-37.25 2.347656-11.113281.875-22.335938-3.96875-32.042969 15.765625-7.957031 26.371094-24.234375 26.371094-42.730469 0-7.550781-1.730469-14.804687-4.972657-21.332031 15.722657-7.9375 26.304688-24.191406 26.304688-42.667969zm0 0" fill="#ffcc80"/><path d="m160 213.332031h-106.667969c-29.417969 0-53.332031 23.914063-53.332031 53.335938v170.664062c0 29.421875 23.914062 53.335938 53.332031 53.335938h64c29.421875 0 53.335938-23.914063 53.335938-53.335938v-213.332031c0-5.886719-4.78125-10.667969-10.667969-10.667969zm0 0" fill="#2196f3"/><path d="m117.332031 490.667969h-64c-29.394531 0-53.332031-23.914063-53.332031-53.335938v-170.664062c0-29.421875 23.9375-53.335938 53.332031-53.335938h106.667969c5.886719 0 10.667969 4.78125 10.667969 10.667969v4.074219l2.558593-1.300781 61.441407-133.097657v-72.34375c0-3.242187 1.46875-6.3125 3.988281-8.339843.683594-.511719 16.511719-12.992188 38.675781-12.992188 24.683594 0 64 39.0625 64 85.332031 0 29.183594-10.453125 65.515625-16.957031 85.335938h131.753906c28.714844 0 53.160156 21.246093 55.636719 48.363281 1.386719 15.1875-3.667969 29.800781-13.632813 40.722656 8.769532 8.8125 13.867188 20.757813 13.867188 33.578125 0 18.496094-10.601562 34.753907-26.347656 42.6875 3.285156 6.53125 5.015625 13.761719 5.015625 21.3125 0 18.496094-10.605469 34.773438-26.371094 42.6875 4.867187 9.730469 6.296875 20.929688 3.839844 32.066407-4.777344 21.589843-25.085938 37.246093-48.316407 37.246093h-195.820312c-14.828125 0-38.742188-4.796875-56.46875-13.929687-7.425781 20.542968-27.117188 35.265625-50.199219 35.265625zm-64-256c-17.640625 0-32 14.355469-32 32v170.664062c0 17.644531 14.359375 32 32 32h64c17.644531 0 32-14.355469 32-32 0-4.308593 2.605469-8.210937 6.59375-9.855469 4.011719-1.621093 8.574219-.722656 11.625 2.304688 10.070313 10.089844 39.105469 18.21875 56.449219 18.21875h195.820312c13.308594 0 24.871094-8.617188 27.496094-20.523438 2.113282-9.554687-.703125-18.835937-7.722656-25.449218-3.027344-2.859375-4.117188-7.191406-2.816406-11.136719 1.324218-3.945313 4.800781-6.742187 8.917968-7.230469 13.460938-1.558594 23.636719-12.867187 23.636719-26.328125 0-7.335937-2.984375-14.207031-8.425781-19.304687-3.027344-2.859375-4.117188-7.191406-2.816406-11.136719 1.324218-3.945313 4.800781-6.742187 8.917968-7.230469 13.484376-1.558594 23.660157-12.867187 23.660157-26.328125 0-9.941406-5.589844-18.984375-14.59375-23.570312-3.433594-1.773438-5.652344-5.226563-5.78125-9.089844-.148438-3.859375 1.769531-7.488281 5.054687-9.492187 10.496094-6.464844 16.320313-18.050782 15.191406-30.1875-1.492187-16.257813-16.597656-28.972657-34.390624-28.972657h-146.816407c-3.519531 0-6.78125-1.726562-8.789062-4.605469-1.984375-2.902343-2.429688-6.59375-1.195313-9.855468.214844-.554688 20.652344-54.679688 20.652344-92.226563 0-34.941406-30.976562-64-42.667969-64-9.195312 0-16.894531 3.328125-21.332031 5.78125v68.886719c0 1.535156-.339844 3.070312-.980469 4.480469l-64 138.667969c-1.023437 2.195312-2.753906 3.988281-4.90625 5.054687l-21.335937 10.667969c-3.328125 1.621094-7.230469 1.425781-10.367188-.449219-3.15625-1.964844-5.078125-5.398437-5.078125-9.089844v-10.664062zm0 0"/><path d="m160 448c-5.886719 0-10.667969-4.777344-10.667969-10.667969v-192c0-5.886719 4.78125-10.664062 10.667969-10.664062s10.667969 4.777343 10.667969 10.664062v192c0 5.890625-4.78125 10.667969-10.667969 10.667969zm0 0"/></svg>