<?xml version="1.0" encoding="UTF-8" standalone="no"?>
<!-- Generator: Adobe Illustrator 19.0.0, SVG Export Plug-In . SVG Version: 6.00 Build 0)  -->

<svg
   xmlns:dc="http://purl.org/dc/elements/1.1/"
   xmlns:cc="http://creativecommons.org/ns#"
   xmlns:rdf="http://www.w3.org/1999/02/22-rdf-syntax-ns#"
   xmlns:svg="http://www.w3.org/2000/svg"
   xmlns="http://www.w3.org/2000/svg"
   xmlns:sodipodi="http://sodipodi.sourceforge.net/DTD/sodipodi-0.dtd"
   xmlns:inkscape="http://www.inkscape.org/namespaces/inkscape"
   version="1.1"
   id="Layer_1"
   x="0px"
   y="0px"
   viewBox="0 0 459.334 459.334"
   style="enable-background:new 0 0 459.334 459.334;"
   xml:space="preserve"
   sodipodi:docname="notifications.svg"
   inkscape:version="0.92.4 (f8dce91, 2019-08-02)"><metadata
   id="metadata47"><rdf:RDF><cc:Work
       rdf:about=""><dc:format>image/svg+xml</dc:format><dc:type
         rdf:resource="http://purl.org/dc/dcmitype/StillImage" /></cc:Work></rdf:RDF></metadata><defs
   id="defs45" /><sodipodi:namedview
   pagecolor="#ffffff"
   bordercolor="#666666"
   borderopacity="1"
   objecttolerance="10"
   gridtolerance="10"
   guidetolerance="10"
   inkscape:pageopacity="0"
   inkscape:pageshadow="2"
   inkscape:window-width="1517"
   inkscape:window-height="845"
   id="namedview43"
   showgrid="false"
   inkscape:zoom="0.51378734"
   inkscape:cx="229.66701"
   inkscape:cy="229.66701"
   inkscape:window-x="83"
   inkscape:window-y="27"
   inkscape:window-maximized="1"
   inkscape:current-layer="Layer_1" />
<g
   id="g10"
   style="fill:#383838;fill-opacity:1">
	<g
   id="g8"
   style="fill:#383838;fill-opacity:1">
		<g
   id="g6"
   style="fill:#383838;fill-opacity:1">
			<path
   d="M175.216,404.514c-0.001,0.12-0.009,0.239-0.009,0.359c0,30.078,24.383,54.461,54.461,54.461     s54.461-24.383,54.461-54.461c0-0.12-0.008-0.239-0.009-0.359H175.216z"
   id="path2"
   style="fill:#383838;fill-opacity:1" />
			<path
   d="M403.549,336.438l-49.015-72.002c0-22.041,0-75.898,0-89.83c0-60.581-43.144-111.079-100.381-122.459V24.485     C254.152,10.963,243.19,0,229.667,0s-24.485,10.963-24.485,24.485v27.663c-57.237,11.381-100.381,61.879-100.381,122.459     c0,23.716,0,76.084,0,89.83l-49.015,72.002c-5.163,7.584-5.709,17.401-1.419,25.511c4.29,8.11,12.712,13.182,21.887,13.182     H383.08c9.175,0,17.597-5.073,21.887-13.182C409.258,353.839,408.711,344.022,403.549,336.438z"
   id="path4"
   style="fill:#383838;fill-opacity:1" />
		</g>
	</g>
</g>
<g
   id="g12">
</g>
<g
   id="g14">
</g>
<g
   id="g16">
</g>
<g
   id="g18">
</g>
<g
   id="g20">
</g>
<g
   id="g22">
</g>
<g
   id="g24">
</g>
<g
   id="g26">
</g>
<g
   id="g28">
</g>
<g
   id="g30">
</g>
<g
   id="g32">
</g>
<g
   id="g34">
</g>
<g
   id="g36">
</g>
<g
   id="g38">
</g>
<g
   id="g40">
</g>
</svg>