<svg height="470pt" viewBox="-60 0 470 470" width="470pt" xmlns="http://www.w3.org/2000/svg"><path d="m268.90625 2.230469c-1.3125-1.394531-3.132812-2.199219-5.046875-2.230469h-257.296875c-3.863281 0-6.5625 3.300781-6.5625 7.160156v455.679688c0 3.859375 2.699219 7.160156 6.5625 7.160156h336.875c3.867188 0 6.5625-3.300781 6.5625-7.160156v-372.875c.082031-1.792969-.542969-3.546875-1.734375-4.890625zm2.09375 22.316406 56 58.453125h-56zm-257 431.453125v-442h243v75.964844c-.03125 1.84375.671875 3.628906 1.960938 4.949218 1.289062 1.320313 3.054687 2.074219 4.898437 2.085938h72.140625v359zm0 0"/><path d="m281.699219 382h-219.558594c-3.867187 0-7 3.132812-7 7s3.132813 7 7 7h219.558594c3.867187 0 7-3.132812 7-7s-3.132813-7-7-7zm0 0"/><path d="m62.140625 328c-3.867187 0-7 3.132812-7 7s3.132813 7 7 7h127.195313c3.863281 0 7-3.132812 7-7s-3.136719-7-7-7zm0 0"/><path d="m151.230469 178.351562c17.628906 0 31.921875-14.289062 31.921875-31.917968s-14.292969-31.921875-31.921875-31.921875c-17.628907 0-31.917969 14.292969-31.917969 31.921875.019531 17.621094 14.296875 31.898437 31.917969 31.917968zm0-49.839843c9.898437 0 17.921875 8.023437 17.921875 17.921875 0 9.894531-8.023438 17.917968-17.921875 17.917968-9.894531 0-17.917969-8.023437-17.917969-17.917968.011719-9.894532 8.027344-17.910156 17.917969-17.921875zm0 0"/><path d="m104.714844 243h93.035156c4.003906-.203125 7.171875-3.46875 7.25-7.476562v-31.679688c0-16.21875-13.445312-29.84375-29.664062-29.84375-2.257813.082031-4.347657 1.214844-5.644532 3.0625-1.371094 1.902344-3.019531 3.589844-4.894531 5-10.242187 7.425781-24.5625 5.167969-32.019531-5.050781-1.304688-1.835938-3.394532-2.953125-5.644532-3.011719-16.222656 0-29.132812 13.625-29.132812 29.84375v31.679688c0 3.867187 2.847656 7.476562 6.714844 7.476562zm7.285156-39.15625c-.050781-7.3125 5.070312-13.648438 12.234375-15.125 12.726563 13.804688 33.789063 15.839844 48.921875 4.726562 1.9375-1.398437 3.738281-2.984374 5.375-4.726562 7.214844 1.453125 12.417969 7.765625 12.46875 15.125v25.15625h-79zm0 0"/><path d="m151.746094 283.757812c58.121094 0 105.238281-47.117187 105.238281-105.238281 0-58.121093-47.117187-105.238281-105.238281-105.238281s-105.238282 47.117188-105.238282 105.238281c.066407 58.09375 47.144532 105.171875 105.238282 105.238281zm0-196.476562c50.390625 0 91.238281 40.847656 91.238281 91.238281s-40.847656 91.238281-91.238281 91.238281-91.238282-40.847656-91.238282-91.238281c.058594-50.367187 40.871094-91.183593 91.238282-91.238281zm0 0"/></svg>