<svg height="512" viewBox="0 0 512 512" width="512" xmlns="http://www.w3.org/2000/svg"><path d="m404 160h-4a48 48 0 0 0 -48-48c-.112 0-.222.008-.334.008a96.013 96.013 0 0 0 -188.66-15.932c-1-.041-2-.076-3.006-.076a71.99 71.99 0 0 0 -71.759 66.36 84.017 84.017 0 0 0 -64.241 81.64 84 84 0 0 0 84 84h296a84 84 0 0 0 84-84 84 84 0 0 0 -84-84z" fill="#ebebeb"/><path d="m144 256h160v216h-160z" fill="#d18d28"/><path d="m168 256h136v192h-136z" fill="#c38325"/><path d="m336 440h-160v-216h112l48 48z" fill="#f7ba61"/><path d="m336 272h-48v-48z" fill="#fbedbf"/><g fill="#d18d28"><path d="m200 256h64v16h-64z"/><path d="m200 288h64v16h-64z"/><path d="m200 320h112v16h-112z"/><path d="m200 352h112v16h-112z"/><path d="m272 384h40v16h-40z"/></g><path d="m292.8 161.6-32-24a8 8 0 0 0 -9.6 0l-32 24 9.6 12.8 19.2-14.4v40h16v-40l19.2 14.4z" fill="#8dc79d"/><path d="m404 304h-68v-16h68a44 44 0 1 0 -23.687-81.088l-8.627-13.474a60 60 0 1 1 32.314 110.562z" fill="#f9f9f9"/><path d="m120 288h24v16h-24z" fill="#f9f9f9"/><path d="m88 288h16v16h-16z" fill="#f9f9f9"/><path d="m248 104h16v16h-16z" fill="#dbdbdb"/><path d="m280 104h16v16h-16z" fill="#dbdbdb"/><path d="m216 104h16v16h-16z" fill="#dbdbdb"/></svg>