<?xml version="1.0" encoding="UTF-8" standalone="no"?>
<!-- Generator: Adobe Illustrator 19.0.0, SVG Export Plug-In . SVG Version: 6.00 Build 0)  -->

<svg
   xmlns:dc="http://purl.org/dc/elements/1.1/"
   xmlns:cc="http://creativecommons.org/ns#"
   xmlns:rdf="http://www.w3.org/1999/02/22-rdf-syntax-ns#"
   xmlns:svg="http://www.w3.org/2000/svg"
   xmlns="http://www.w3.org/2000/svg"
   xmlns:sodipodi="http://sodipodi.sourceforge.net/DTD/sodipodi-0.dtd"
   xmlns:inkscape="http://www.inkscape.org/namespaces/inkscape"
   version="1.1"
   id="Layer_1"
   x="0px"
   y="0px"
   viewBox="0 0 512 512"
   style="enable-background:new 0 0 512 512;"
   xml:space="preserve"
   sodipodi:docname="upload-4.svg"
   inkscape:version="0.92.4 (f8dce91, 2019-08-02)"><metadata
   id="metadata53"><rdf:RDF><cc:Work
       rdf:about=""><dc:format>image/svg+xml</dc:format><dc:type
         rdf:resource="http://purl.org/dc/dcmitype/StillImage" /></cc:Work></rdf:RDF></metadata><defs
   id="defs51" /><sodipodi:namedview
   pagecolor="#ffffff"
   bordercolor="#666666"
   borderopacity="1"
   objecttolerance="10"
   gridtolerance="10"
   guidetolerance="10"
   inkscape:pageopacity="0"
   inkscape:pageshadow="2"
   inkscape:window-width="1517"
   inkscape:window-height="845"
   id="namedview49"
   showgrid="false"
   inkscape:zoom="0.4609375"
   inkscape:cx="256"
   inkscape:cy="256"
   inkscape:window-x="83"
   inkscape:window-y="27"
   inkscape:window-maximized="1"
   inkscape:current-layer="Layer_1" />
<path
   d="M473.56,397.58V103.228c0-7.04-5.76-12.8-12.8-12.8H51.32c-7.04,0-12.8,5.76-12.8,12.8V397.58  C38.528,397.58,474.632,397.58,473.56,397.58z"
   id="path2" />
<rect
   x="54.52"
   y="106.428"
   style="fill:#E21B1B;"
   width="403.04"
   height="275.152"
   id="rect4" />
<rect
   y="397.58"
   style="fill:#D8D8D8;"
   width="511.912"
   height="8"
   id="rect6" />
<polygon
   style="fill:#AAAAAA;"
   points="486.408,421.572 25.688,421.572 0.088,405.58 512,405.58 "
   id="polygon8" />
<g
   style="opacity:0.7;"
   id="g12">
	<path
   style="fill:#FFFFFF;"
   d="M298.992,397.58H212.92c0.816,4.488,4.824,8,9.832,8h66.4   C294.168,405.58,298.176,402.068,298.992,397.58z"
   id="path10" />
</g>
<path
   style="fill:#FFFFFF;"
   d="M348.112,327.42H163.904c-12.664,0-23.024-10.36-23.024-23.024v-122.64  c0-12.664,10.36-23.024,23.024-23.024h184.208c12.664,0,23.024,10.36,23.024,23.024v122.64  C371.136,317.06,360.776,327.42,348.112,327.42z"
   id="path14" />
<polygon
   points="211.024,283.22 241.696,251.94 241.696,327.42 270.312,327.42 270.312,251.94 300.992,283.22 321.416,263.3   256.008,196.604 190.6,263.3 "
   id="polygon16" />
<g
   id="g18">
</g>
<g
   id="g20">
</g>
<g
   id="g22">
</g>
<g
   id="g24">
</g>
<g
   id="g26">
</g>
<g
   id="g28">
</g>
<g
   id="g30">
</g>
<g
   id="g32">
</g>
<g
   id="g34">
</g>
<g
   id="g36">
</g>
<g
   id="g38">
</g>
<g
   id="g40">
</g>
<g
   id="g42">
</g>
<g
   id="g44">
</g>
<g
   id="g46">
</g>
</svg>